<svg width="256" height="256" viewBox="0 0 256 256" fill="none" xmlns="http://www.w3.org/2000/svg">
<path d="M128 256C73.2653 256 45.9044 256 28.9022 237.248C11.9 218.522 11.9 188.339 11.9 128C11.9 67.6608 11.9 37.4912 28.9022 18.7392C45.9044 -0.0128006 73.2782 2.37942e-08 128 2.37942e-08C182.722 2.37942e-08 210.096 0 227.098 18.7392C244.1 37.504 244.1 67.6608 244.1 128C244.1 188.339 244.1 218.509 227.098 237.248C210.096 255.987 182.722 256 128 256Z" fill="#4D6BDD"/>
<path d="M166.699 51.2H89.2993C83.3008 51.2 80.308 51.2 77.8441 51.8528C74.5658 52.7256 71.5765 54.4388 69.1764 56.8203C66.7763 59.2018 65.0497 62.1679 64.1701 65.4208C63.4993 67.8912 63.4993 70.8608 63.4993 76.7999C63.4993 82.7391 63.4993 85.7215 64.1572 88.1663C65.0369 91.4192 66.7634 94.3853 69.1635 96.7668C71.5636 99.1483 74.5529 100.861 77.8312 101.734C80.3209 102.4 83.3137 102.4 89.2993 102.4H166.699C172.698 102.4 175.691 102.4 178.154 101.747C181.433 100.874 184.422 99.1611 186.822 96.7796C189.222 94.3981 190.949 91.432 191.828 88.1791C192.499 85.7087 192.499 82.7391 192.499 76.7999C192.499 70.8608 192.499 67.8784 191.841 65.4336C190.962 62.1807 189.235 59.2146 186.835 56.8331C184.435 54.4516 181.446 52.7384 178.167 51.8656C175.691 51.2 172.685 51.2 166.699 51.2ZM76.3993 153.6C79.8206 153.6 83.1017 152.251 85.5209 149.851C87.9402 147.45 89.2993 144.195 89.2993 140.8C89.2993 137.405 87.9402 134.149 85.5209 131.749C83.1017 129.349 79.8206 128 76.3993 128C72.978 128 69.6968 129.349 67.2776 131.749C64.8584 134.149 63.4993 137.405 63.4993 140.8C63.4993 144.195 64.8584 147.45 67.2776 149.851C69.6968 152.251 72.978 153.6 76.3993 153.6ZM76.3993 204.8C79.8206 204.8 83.1017 203.451 85.5209 201.051C87.9402 198.65 89.2993 195.395 89.2993 192C89.2993 188.605 87.9402 185.349 85.5209 182.949C83.1017 180.549 79.8206 179.2 76.3993 179.2C72.978 179.2 69.6968 180.549 67.2776 182.949C64.8584 185.349 63.4993 188.605 63.4993 192C63.4993 195.395 64.8584 198.65 67.2776 201.051C69.6968 203.451 72.978 204.8 76.3993 204.8ZM127.999 153.6C131.421 153.6 134.702 152.251 137.121 149.851C139.54 147.45 140.899 144.195 140.899 140.8C140.899 137.405 139.54 134.149 137.121 131.749C134.702 129.349 131.421 128 127.999 128C124.578 128 121.297 129.349 118.878 131.749C116.458 134.149 115.099 137.405 115.099 140.8C115.099 144.195 116.458 147.45 118.878 149.851C121.297 152.251 124.578 153.6 127.999 153.6ZM127.999 204.8C131.421 204.8 134.702 203.451 137.121 201.051C139.54 198.65 140.899 195.395 140.899 192C140.899 188.605 139.54 185.349 137.121 182.949C134.702 180.549 131.421 179.2 127.999 179.2C124.578 179.2 121.297 180.549 118.878 182.949C116.458 185.349 115.099 188.605 115.099 192C115.099 195.395 116.458 198.65 118.878 201.051C121.297 203.451 124.578 204.8 127.999 204.8ZM179.599 153.6C183.021 153.6 186.302 152.251 188.721 149.851C191.14 147.45 192.499 144.195 192.499 140.8C192.499 137.405 191.14 134.149 188.721 131.749C186.302 129.349 183.021 128 179.599 128C176.178 128 172.897 129.349 170.478 131.749C168.058 134.149 166.699 137.405 166.699 140.8C166.699 144.195 168.058 147.45 170.478 149.851C172.897 152.251 176.178 153.6 179.599 153.6ZM179.599 204.8C183.021 204.8 186.302 203.451 188.721 201.051C191.14 198.65 192.499 195.395 192.499 192C192.499 188.605 191.14 185.349 188.721 182.949C186.302 180.549 183.021 179.2 179.599 179.2C176.178 179.2 172.897 180.549 170.478 182.949C168.058 185.349 166.699 188.605 166.699 192C166.699 195.395 168.058 198.65 170.478 201.051C172.897 203.451 176.178 204.8 179.599 204.8Z" fill="white"/>
</svg>
